<?xml version="1.0" encoding="UTF-8"?>
<svg width="64" height="64" viewBox="0 0 64 64" fill="none" xmlns="http://www.w3.org/2000/svg" role="img" aria-label="MindMeld AI logo">
  <defs>
    <linearGradient id="g1" x1="0" y1="0" x2="1" y2="1">
      <stop offset="0%" stop-color="#6EE7F7"/>
      <stop offset="50%" stop-color="#7C3AED"/>
      <stop offset="100%" stop-color="#4F46E5"/>
    </linearGradient>
  </defs>

  <!-- outer rounded brain-ish shape -->
  <path d="M32 6c9.94 0 18 6.03 18 13.5 0 3.3-1.8 6.35-4.93 8.7-.86.66-1.4 1.66-1.4 2.74V36c0 4.97-6.06 9-13.67 9C22.06 45 16 40.97 16 36v-5.06c0-1.08-.54-2.08-1.4-2.74C10.8 25.85 9 22.8 9 19.5 9 12.03 18.06 6 32 6z" fill="url(#g1)" opacity="0.95"/>

  <!-- nodes -->
  <circle cx="22" cy="22" r="2.6" fill="#fff" opacity="0.95"/>
  <circle cx="30" cy="18" r="2.4" fill="#fff" opacity="0.95"/>
  <circle cx="40" cy="22" r="2.6" fill="#fff" opacity="0.95"/>
  <circle cx="26" cy="30" r="2.2" fill="#fff" opacity="0.95"/>
  <circle cx="38" cy="32" r="2.2" fill="#fff" opacity="0.95"/>

  <!-- connecting lines -->
  <path d="M23.5 22.5 L29 19.5" stroke="#ffffff" stroke-opacity="0.9" stroke-width="1.2" stroke-linecap="round"/>
  <path d="M31 19 L39 22" stroke="#ffffff" stroke-opacity="0.9" stroke-width="1.2" stroke-linecap="round"/>
  <path d="M28 28 L34 24" stroke="#ffffff" stroke-opacity="0.9" stroke-width="1.2" stroke-linecap="round"/>
  <path d="M27 30 L37 32" stroke="#ffffff" stroke-opacity="0.9" stroke-width="1.2" stroke-linecap="round"/>

  <!-- subtle inner highlight -->
  <ellipse cx="30" cy="28" rx="12" ry="8" fill="#ffffff" opacity="0.03" />
</svg>
