<?xml version="1.0" encoding="UTF-8"?>
<svg width="64" height="64" viewBox="0 0 64 64" fill="none" xmlns="http://www.w3.org/2000/svg" role="img" aria-label="MindMeld AI logo">
  <defs>
    <linearGradient id="g1" x1="0" y1="0" x2="1" y2="1">
      <stop offset="0%" stop-color="#6EE7F7"/>
      <stop offset="50%" stop-color="#7C3AED"/>
      <stop offset="100%" stop-color="#4F46E5"/>
    </linearGradient>
  </defs>

  <!-- outer rounded brain-ish shape -->
  <path d="M36 10c9.94 0 18 6.03 18 13.5 0 3.3-1.8 6.35-4.93 8.7-.86.66-1.4 1.66-1.4 2.74V40c0 4.97-6.06 9-13.67 9C26.06 49 20 44.97 20 40v-5.06c0-1.08-.54-2.08-1.4-2.74C13.8 29.85 12 26.8 12 23.5 12 16.03 22.06 10 36 10z" fill="url(#g1)" opacity="0.95"/>

  <!-- nodes -->
  <circle cx="26" cy="26" r="2.6" fill="#fff" opacity="0.95"/>
  <circle cx="34" cy="22" r="2.4" fill="#fff" opacity="0.95"/>
  <circle cx="44" cy="26" r="2.6" fill="#fff" opacity="0.95"/>
  <circle cx="30" cy="34" r="2.2" fill="#fff" opacity="0.95"/>
  <circle cx="42" cy="36" r="2.2" fill="#fff" opacity="0.95"/>

  <!-- connecting lines -->
  <path d="M27.5 26.5 L33 23.5" stroke="#ffffff" stroke-opacity="0.9" stroke-width="1.2" stroke-linecap="round"/>
  <path d="M35 23 L43 26" stroke="#ffffff" stroke-opacity="0.9" stroke-width="1.2" stroke-linecap="round"/>
  <path d="M32 32 L38 28" stroke="#ffffff" stroke-opacity="0.9" stroke-width="1.2" stroke-linecap="round"/>
  <path d="M31 34 L41 36" stroke="#ffffff" stroke-opacity="0.9" stroke-width="1.2" stroke-linecap="round"/>

  <!-- subtle inner highlight -->
  <ellipse cx="36" cy="32" rx="12" ry="8" fill="#ffffff" opacity="0.03" />
</svg>
